<svg width="26" height="25" viewBox="0 0 26 25" fill="none" xmlns="http://www.w3.org/2000/svg">
<path d="M22.8516 11.3279H4.10156C3.99796 11.3279 3.89861 11.369 3.82535 11.4423C3.75209 11.5155 3.71094 11.6149 3.71094 11.7185C3.7142 13.545 4.22801 15.3342 5.19435 16.8842C6.16069 18.4341 7.54109 19.683 9.17969 20.49V21.0935C9.17969 21.4043 9.30315 21.7024 9.52292 21.9221C9.74269 22.1419 10.0408 22.2654 10.3516 22.2654H16.6016C16.9124 22.2654 17.2104 22.1419 17.4302 21.9221C17.65 21.7024 17.7734 21.4043 17.7734 21.0935V20.49C19.412 19.683 20.7924 18.4341 21.7588 16.8842C22.7251 15.3342 23.2389 13.545 23.2422 11.7185C23.2422 11.6149 23.201 11.5155 23.1278 11.4423C23.0545 11.369 22.9552 11.3279 22.8516 11.3279ZM17.2197 19.8884C17.1517 19.9196 17.0942 19.9698 17.0538 20.0328C17.0135 20.0958 16.9921 20.1691 16.9922 20.2439V21.0935C16.9922 21.1971 16.951 21.2964 16.8778 21.3697C16.8045 21.443 16.7052 21.4841 16.6016 21.4841H10.3516C10.248 21.4841 10.1486 21.443 10.0753 21.3697C10.0021 21.2964 9.96094 21.1971 9.96094 21.0935V20.2439C9.96104 20.1691 9.93965 20.0958 9.89931 20.0328C9.85897 19.9698 9.80139 19.9196 9.7334 19.8884C8.23165 19.1963 6.94919 18.1045 6.02633 16.7325C5.10347 15.3604 4.57578 13.761 4.50098 12.1091H22.4521C22.3773 13.761 21.8497 15.3604 20.9268 16.7325C20.0039 18.1045 18.7215 19.1963 17.2197 19.8884ZM17.0781 5.61497C17.6211 4.93919 17.8594 4.35618 17.7451 3.97337C17.6475 3.62767 17.2666 3.49778 17.2627 3.49681C17.1639 3.46547 17.0816 3.39616 17.0339 3.30413C16.9862 3.2121 16.977 3.10489 17.0083 3.00608C17.0396 2.90727 17.1089 2.82496 17.201 2.77725C17.293 2.72955 17.4002 2.72035 17.499 2.75169C17.5303 2.76145 18.2646 2.99778 18.4912 3.73899C18.6914 4.39524 18.4209 5.19114 17.6875 6.10423C17.1445 6.77903 16.9062 7.36204 17.0205 7.74485C17.1182 8.09056 17.499 8.22044 17.5029 8.22142C17.5918 8.24982 17.6675 8.30907 17.7165 8.38846C17.7654 8.46784 17.7844 8.56213 17.7698 8.65426C17.7553 8.74639 17.7083 8.83029 17.6374 8.89079C17.5664 8.95129 17.4761 8.98439 17.3828 8.98411C17.3434 8.984 17.3043 8.97808 17.2666 8.96653C17.2354 8.95677 16.501 8.72044 16.2744 7.97923C16.0742 7.32395 16.3447 6.52708 17.0781 5.61497ZM13.1719 5.61497C13.7148 4.93919 13.9531 4.35618 13.8389 3.97337C13.7412 3.62767 13.3604 3.49778 13.3564 3.49681C13.2576 3.46547 13.1753 3.39616 13.1276 3.30413C13.0799 3.2121 13.0707 3.10489 13.1021 3.00608C13.1334 2.90727 13.2027 2.82496 13.2947 2.77725C13.3868 2.72955 13.494 2.72035 13.5928 2.75169C13.624 2.76145 14.3584 2.99778 14.585 3.73899C14.7852 4.39524 14.5146 5.19114 13.7812 6.10423C13.2383 6.77903 13 7.36204 13.1143 7.74485C13.2119 8.09056 13.5928 8.22044 13.5967 8.22142C13.6855 8.24982 13.7613 8.30907 13.8102 8.38846C13.8592 8.46784 13.8781 8.56213 13.8636 8.65426C13.8491 8.74639 13.8021 8.83029 13.7311 8.89079C13.6601 8.95129 13.5698 8.98439 13.4766 8.98411C13.4372 8.984 13.398 8.97808 13.3604 8.96653C13.3291 8.95677 12.5947 8.72044 12.3682 7.97923C12.168 7.32395 12.4385 6.52708 13.1719 5.61497ZM9.26562 5.61497C9.80859 4.93919 10.0469 4.35618 9.93262 3.97337C9.83496 3.62767 9.4541 3.49778 9.45019 3.49681C9.40127 3.48129 9.35588 3.45629 9.31662 3.42323C9.27736 3.39017 9.24499 3.3497 9.22137 3.30413C9.19774 3.25856 9.18333 3.20879 9.17894 3.15765C9.17455 3.10651 9.18028 3.05501 9.1958 3.00608C9.21132 2.95716 9.23632 2.91177 9.26938 2.87251C9.30244 2.83324 9.34291 2.80088 9.38848 2.77725C9.43404 2.75363 9.48382 2.73922 9.53496 2.73483C9.5861 2.73044 9.6376 2.73617 9.68652 2.75169C9.71777 2.76145 10.4521 2.99778 10.6787 3.73899C10.8789 4.39524 10.6084 5.19114 9.875 6.10423C9.33203 6.77903 9.09375 7.36204 9.20801 7.74485C9.30566 8.09056 9.68652 8.22044 9.69043 8.22142C9.77927 8.24982 9.85501 8.30907 9.90397 8.38846C9.95292 8.46784 9.97185 8.56213 9.95734 8.65426C9.94283 8.74639 9.89584 8.83029 9.82485 8.89079C9.75387 8.95129 9.66358 8.98439 9.57031 8.98411C9.53092 8.984 9.49176 8.97808 9.4541 8.96653C9.42285 8.95677 8.68848 8.72044 8.46191 7.97923C8.26172 7.32395 8.53223 6.52708 9.26562 5.61497Z" fill="black"/>
</svg>
